HIERARCHY
ROOT root
{
	OFFSET	0	13.1	24.9
	CHANNELS 6  Xposition Yposition Zposition Xrotation Yrotation Zrotation
	JOINT spine_1
	{
		OFFSET	0	9.99999	0
		CHANNELS 3  Xrotation Yrotation Zrotation
		JOINT spine_2
		{
			OFFSET	0	112	-10
			CHANNELS 3  Xrotation Yrotation Zrotation
			JOINT spine_3
			{
				OFFSET	0	206.5	19.3
				CHANNELS 3  Xrotation Yrotation Zrotation
				JOINT spine_4
				{
					OFFSET	0	110.4	14.6
					CHANNELS 3  Xrotation Yrotation Zrotation
					JOINT neck_1
					{
						OFFSET	0	71.8	-50.3
						CHANNELS 3  Xrotation Yrotation Zrotation
						JOINT neck_2
						{
							OFFSET	0	86.2	-25.8
							CHANNELS 3  Xrotation Yrotation Zrotation
							JOINT head_ee
							{
								OFFSET	0	179.8	-8.7
								CHANNELS 3  Xrotation Yrotation Zrotation
								End Site
								{
									OFFSET	1	0	0
								}
							}
						}
					}
					JOINT left_clavicle
					{
						OFFSET	-43.2	22.4	-70.8
						CHANNELS 3  Xrotation Yrotation Zrotation
						JOINT left_shoulder
						{
							OFFSET	-93.9	-5.79999	48.7
							CHANNELS 3  Xrotation Yrotation Zrotation
							JOINT left_elbow
							{
								OFFSET	-291.4	-30.8	15.2
								CHANNELS 3  Xrotation Yrotation Zrotation
								JOINT left_lowarm_twist
								{
									OFFSET	-110.7	-3.89999	13.6
									CHANNELS 3  Xrotation Yrotation Zrotation
									JOINT left_hand
									{
										OFFSET	-110.7	-3.89999	13.6
										CHANNELS 3  Xrotation Yrotation Zrotation
										JOINT left_ee
										{
											OFFSET	-80.8	-5.10001	12.1
											CHANNELS 3  Xrotation Yrotation Zrotation
											End Site
											{
												OFFSET	1	0	0
											}
										}
									}
								}
							}
						}
					}
					JOINT right_clavicle
					{
						OFFSET	43.2	22.4	-70.8
						CHANNELS 3  Xrotation Yrotation Zrotation
						JOINT right_shoulder
						{
							OFFSET	93.9	-5.79999	48.7
							CHANNELS 3  Xrotation Yrotation Zrotation
							JOINT right_elbow
							{
								OFFSET	291.4	-30.8	15.2
								CHANNELS 3  Xrotation Yrotation Zrotation
								JOINT right_lowarm_twist
								{
									OFFSET	110.7	-3.89999	13.6
									CHANNELS 3  Xrotation Yrotation Zrotation
									JOINT right_hand
									{
										OFFSET	110.7	-3.89999	13.6
										CHANNELS 3  Xrotation Yrotation Zrotation
										JOINT right_ee
										{
											OFFSET	80.8	-5.10001	12.1
											CHANNELS 3  Xrotation Yrotation Zrotation
											End Site
											{
												OFFSET	1	0	0
											}
										}
									}
								}
							}
						}
					}
				}
			}
		}
	}
	JOINT left_hip
	{
		OFFSET	-82.8	-127.5	0.300001
		CHANNELS 3  Xrotation Yrotation Zrotation
		JOINT left_knee
		{
			OFFSET	-28.2	-396.7	2.2
			CHANNELS 3  Xrotation Yrotation Zrotation
			JOINT left_ankle
			{
				OFFSET	-11.7	-411.3	35.4
				CHANNELS 3  Xrotation Yrotation Zrotation
				JOINT left_toes
				{
					OFFSET	0	-60	-88.6
					CHANNELS 3  Xrotation Yrotation Zrotation
					JOINT left_foot_ee
					{
						OFFSET	-22.5	-16.5	-42.2
						CHANNELS 3  Xrotation Yrotation Zrotation
						End Site
						{
							OFFSET	1	0	0
						}
					}
				}
			}
		}
	}
	JOINT right_hip
	{
		OFFSET	82.8	-127.5	0.300001
		CHANNELS 3  Xrotation Yrotation Zrotation
		JOINT right_knee
		{
			OFFSET	28.2	-396.7	2.2
			CHANNELS 3  Xrotation Yrotation Zrotation
			JOINT right_ankle
			{
				OFFSET	11.7	-411.3	35.4
				CHANNELS 3  Xrotation Yrotation Zrotation
				JOINT right_toes
				{
					OFFSET	0	-60	-88.6
					CHANNELS 3  Xrotation Yrotation Zrotation
					JOINT right_foot_ee
					{
						OFFSET	22.5	-16.5	-42.2
						CHANNELS 3  Xrotation Yrotation Zrotation
						End Site
						{
							OFFSET	1	0	0
						}
					}
				}
			}
		}
	}
}
MOTION
Frames: 5
Frame Time: 0.02
2875.82717752 697.107 -1653.31025697 -4.12905712302 36.217701281 1.55632399074 0.615306 0.30287 1.17961 0.616051 0.2272 1.19649 0.621132 -0.0161331 1.21776 0.619106 0.176378 1.20503 -19.7372 20.7084 9.87287 -21.3875 34.9499 18.383 -0.0 0.0 -0.0 7.46069 12.697 14.0494 -2.79925 0.466964 46.7111 1.59574 -38.323 0.554526 -55.0362 -4.67269 4.92004 -0.741675 7.0105 -1.90505 -0.0 0.0 -0.0 13.08 21.5216 -26.3141 -21.8096 17.5575 -55.6968 0.783973 21.224 -0.146888 85.3177 4.46461 8.88068 -6.48346 -29.5088 23.9825 0.0 0.0 0.0 8.5902 41.5048 0.753442 2.11395 -0.0928063 -0.311085 12.1042 -5.06876 -1.75115 -22.6998 0.0 0.0 -0.0 0.0 -0.0 22.7093 27.1464 2.367 -45.2867 0.836889 -6.72195 -1.37349 -9.79229 -0.20169 -20.0028 0.0 0.0 0.0 0.0 0.0 
2862.5141256 695.809 -1644.25669678 -4.33941276423 36.7027393946 1.49835839508 0.628773 0.232843 1.0311 0.629349 0.166764 1.04382 0.632628 -0.044685 1.05611 0.631093 0.12266 1.04992 -21.2151 20.0285 9.3012 -23.0373 34.172 18.1211 -0.0 0.0 -0.0 7.64196 13.261 14.3248 -0.186807 0.0720523 45.7824 1.82792 -42.1567 0.704594 -54.4451 -4.60112 4.89495 -0.454572 10.123 1.27985 -0.0 0.0 -0.0 12.8008 20.8107 -25.722 -23.0686 17.6144 -54.6451 0.743922 20.2297 -0.132713 85.3378 4.46702 8.88159 -6.66378 -29.5058 25.0751 0.0 0.0 0.0 6.51768 41.0987 2.33101 2.12809 -0.0934658 -0.313155 12.7063 -5.75022 -1.83889 -22.4256 0.0 0.0 -0.0 0.0 -0.0 23.0742 22.8804 2.06549 -37.1968 0.298127 -5.60183 -7.73146 -3.01351 -1.15441 -18.2781 0.0 0.0 0.0 0.0 0.0 
2862.83985646 695.809 -1640.45514777 -4.37917107063 37.3936406037 1.56434755752 0.628773 0.232843 1.0311 0.629349 0.166764 1.04382 0.632628 -0.044685 1.05611 0.631093 0.12266 1.04992 -21.2151 20.0285 9.3012 -23.0373 34.172 18.1211 -0.0 0.0 -0.0 7.64196 13.261 14.3248 -0.186807 0.0720523 45.7824 1.82792 -42.1567 0.704594 -54.4451 -4.60112 4.89495 -0.454572 10.123 1.27985 -0.0 0.0 -0.0 12.8008 20.8107 -25.722 -23.0686 17.6144 -54.6451 0.743922 20.2297 -0.132713 85.3378 4.46702 8.88159 -6.66378 -29.5058 25.0751 0.0 0.0 0.0 6.51768 41.0987 2.33101 2.12809 -0.0934658 -0.313155 12.7063 -5.75022 -1.83889 -22.4256 0.0 0.0 -0.0 0.0 -0.0 23.0742 22.8804 2.06549 -37.1968 0.298127 -5.60183 -7.73146 -3.01351 -1.15441 -18.2781 0.0 0.0 0.0 0.0 0.0 
2837.08241298 705.789 -1620.44740659 -3.79236177661 40.766153888 1.12892804919 0.330814 0.351004 0.941554 0.331261 0.290382 0.961979 0.336432 0.0876136 1.00102 0.335117 0.244599 0.974625 -22.5347 20.0885 9.94795 -24.5287 34.2013 19.2605 -0.0 0.0 -0.0 7.47476 14.5125 13.9492 1.30529 0.105749 45.4385 2.36901 -49.5576 1.09369 -55.4145 -4.71862 4.9357 -0.0620816 12.5499 4.77604 -0.0 0.0 -0.0 12.4559 19.2146 -25.037 -25.5559 15.8564 -53.6161 0.658319 18.0618 -0.104633 85.4526 4.48079 8.88679 -6.64111 -29.4438 24.9944 0.0 0.0 0.0 2.63427 41.4303 5.09199 1.48014 -0.0637746 -0.218169 17.4694 -4.16577 -2.46151 -21.5309 0.0 0.0 -0.0 0.0 -0.0 24.7972 18.5937 0.52416 -29.6103 -0.058796 -4.49345 -7.89249 7.40998 -1.22074 -17.4921 0.0 0.0 0.0 0.0 0.0 
2808.40796616 699.093 -1597.6964625 -2.54470718054 43.4047097844 0.0566778797467 0.43521 0.343011 0.831798 0.435549 0.289389 0.851937 0.44008 0.11075 0.892901 0.439055 0.250372 0.864207 -21.7732 21.2497 10.5633 -23.885 36.0368 20.1776 -0.0 0.0 -0.0 6.40586 12.126 12.2527 3.01527 -0.0792585 44.2062 3.22065 -57.9078 1.78218 -56.0526 -4.79632 4.96143 0.46964 19.2428 10.6357 -0.0 0.0 -0.0 12.0147 16.6049 -24.1667 -27.2777 13.7029 -52.5164 0.594479 16.4092 -0.085715 84.9301 4.41816 8.8629 -6.49358 -29.4565 24.0903 0.0 0.0 0.0 -2.82341 41.544 7.99703 -2.34285 0.0893499 0.348423 22.5117 2.27717 -3.047 -18.1951 0.0 0.0 -0.0 0.0 -0.0 25.6828 17.5032 -2.48543 -15.303 -0.322004 -2.31938 -7.87322 21.5325 -1.35384 -16.6537 0.0 0.0 0.0 0.0 0.0 
